<?xml version="1.0" encoding="utf-8"?>
<!-- Generator: Adobe Illustrator 24.0.2, SVG Export Plug-In . SVG Version: 6.00 Build 0)  -->
<svg version="1.1" id="Layer_1" xmlns="http://www.w3.org/2000/svg" xmlns:xlink="http://www.w3.org/1999/xlink" x="0px" y="0px"
	 viewBox="0 0 400 400" style="enable-background:new 0 0 400 400;" xml:space="preserve">
<style type="text/css">
	.st0{fill:#FFFFFF;stroke:#000000;stroke-width:5;stroke-miterlimit:10;}
	.st1{fill:#FC3693;}
</style>
<path class="st0" d="M378,396.9H22.4c-10.3,0-18.7-8.4-18.7-18.7v-356c0-10.3,8.4-18.7,18.7-18.7H378c10.3,0,18.7,8.4,18.7,18.7v356
	C396.7,388.5,388.3,396.9,378,396.9z"/>
<g>
	<polygon class="st1" points="103.4,43.7 169.1,43.7 169.1,111.4 103.4,128.8 	"/>
</g>
<polygon class="st1" points="103.4,126.5 103.3,318.8 169.1,299.1 169.1,240.4 221,356.2 296.7,356.3 221,188.7 276.6,85.5 
	199.2,102.9 169.1,156.7 169.1,110 "/>
</svg>
