<?xml version="1.0" encoding="utf-8"?>
<!-- Generator: Adobe Illustrator 24.0.2, SVG Export Plug-In . SVG Version: 6.00 Build 0)  -->
<svg version="1.1" id="Layer_1" xmlns="http://www.w3.org/2000/svg" xmlns:xlink="http://www.w3.org/1999/xlink" x="0px" y="0px"
	 viewBox="0 0 400 400" style="enable-background:new 0 0 400 400;" xml:space="preserve">
<style type="text/css">
	.st0{fill:#FFFFFF;stroke:#000000;stroke-width:5;stroke-miterlimit:10;}
	.st1{fill:url(#SVGID_1_);}
	.st2{fill:#1A1A1A;}
</style>
<path class="st0" d="M348.36,400H51.64C23.12,400,0,376.88,0,348.36V51.64C0,23.12,23.12,0,51.64,0h296.72
	C376.88,0,400,23.12,400,51.64v296.72C400,376.88,376.88,400,348.36,400z"/>
<g>
	<linearGradient id="SVGID_1_" gradientUnits="userSpaceOnUse" x1="103.3781" y1="86.2677" x2="169.1549" y2="86.2677">
		<stop  offset="0" style="stop-color:#37A171"/>
		<stop  offset="0.1753" style="stop-color:#48AA62"/>
		<stop  offset="0.439" style="stop-color:#5BB552"/>
		<stop  offset="0.7106" style="stop-color:#66BB48"/>
		<stop  offset="1" style="stop-color:#6ABD45"/>
	</linearGradient>
	<polygon class="st1" points="103.38,43.71 169.15,43.71 169.15,111.45 103.38,128.83 	"/>
</g>
<polygon class="st2" points="103.38,126.48 103.28,318.83 169.15,299.07 169.15,240.38 221.04,356.25 296.72,356.29 221,188.67 
	276.63,85.53 199.19,102.86 169.15,156.68 169.15,109.98 "/>
</svg>
