<svg xmlns="http://www.w3.org/2000/svg" xmlns:xlink="http://www.w3.org/1999/xlink" width="500" zoomAndPan="magnify" viewBox="0 0 375 374.999991" height="500" preserveAspectRatio="xMidYMid meet" version="1.0"><defs><g/></defs><g fill="#000000" fill-opacity="1"><g transform="translate(47.286198, 207.90176)"><g><path d="M 20.515625 -17.578125 L 33.296875 0 L 22.640625 0 L 13.328125 -13.921875 L 11.046875 -13.921875 L 11.046875 0 L 2.609375 0 L 2.609375 -34.109375 L 11.046875 -34.109375 L 11.046875 -20.671875 L 13.328125 -20.671875 L 22.734375 -34.109375 L 32.859375 -34.109375 Z M 20.515625 -17.578125 "/></g></g></g><g fill="#000000" fill-opacity="1"><g transform="translate(82.653168, 207.90176)"><g><path d="M 27.6875 -34.109375 L 27.6875 -26.5 L 18.390625 -26.5 L 18.390625 0 L 9.953125 0 L 9.953125 -26.5 L 0.65625 -26.5 L 0.65625 -34.109375 Z M 27.6875 -34.109375 "/></g></g></g><g fill="#000000" fill-opacity="1"><g transform="translate(113.721727, 207.90176)"><g><path d="M 11.046875 0 L 2.609375 0 L 2.609375 -34.109375 L 11.046875 -34.109375 L 11.046875 -21.109375 L 23.015625 -21.109375 L 23.015625 -34.109375 L 31.453125 -34.109375 L 31.453125 0 L 23.015625 0 L 23.015625 -13.5 L 11.046875 -13.5 Z M 11.046875 0 "/></g></g></g><g fill="#000000" fill-opacity="1"><g transform="translate(150.503361, 207.90176)"><g><path d="M 19.09375 -20.40625 L 19.09375 -14.25 L 1.734375 -14.25 L 1.734375 -20.40625 Z M 19.09375 -20.40625 "/></g></g></g><g fill="#000000" fill-opacity="1"><g transform="translate(173.760301, 207.90176)"><g><path d="M 36.78125 -34.109375 L 36.78125 0 L 28.890625 0 L 28.890625 -20.453125 L 23.0625 -6.53125 L 16.21875 -6.53125 L 10.5 -20.453125 L 10.5 0 L 2.609375 0 L 2.609375 -34.109375 L 12.890625 -34.109375 L 19.796875 -16.921875 L 26.875 -34.109375 Z M 36.78125 -34.109375 "/></g></g></g><g fill="#000000" fill-opacity="1"><g transform="translate(215.874135, 207.90176)"><g><path d="M 26.109375 -7.890625 L 26.109375 0 L 2.609375 0 L 2.609375 -34.109375 L 25.625 -34.109375 L 25.625 -26.5 L 11.046875 -26.5 L 11.046875 -20.84375 L 23.609375 -20.84375 L 23.609375 -13.765625 L 11.046875 -13.765625 L 11.046875 -7.890625 Z M 26.109375 -7.890625 "/></g></g></g><g fill="#000000" fill-opacity="1"><g transform="translate(246.07213, 207.90176)"><g><path d="M 14.53125 0 L 2.609375 0 L 2.609375 -34.109375 L 14.53125 -34.109375 C 18.007812 -34.109375 20.769531 -33.816406 22.8125 -33.234375 C 24.863281 -32.660156 26.507812 -31.738281 27.75 -30.46875 C 28.976562 -29.195312 29.875 -27.484375 30.4375 -25.328125 C 31 -23.171875 31.28125 -20.421875 31.28125 -17.078125 C 31.28125 -11.171875 29.957031 -6.847656 27.3125 -4.109375 C 24.664062 -1.367188 20.40625 0 14.53125 0 Z M 21.21875 -24.3125 C 20.707031 -25.082031 19.960938 -25.640625 18.984375 -25.984375 C 18.003906 -26.328125 16.519531 -26.5 14.53125 -26.5 L 11.046875 -26.5 L 11.046875 -7.890625 L 14.53125 -7.890625 C 16.488281 -7.890625 17.957031 -8.050781 18.9375 -8.375 C 19.914062 -8.707031 20.675781 -9.234375 21.21875 -9.953125 C 21.6875 -10.640625 22.03125 -11.554688 22.25 -12.703125 C 22.46875 -13.847656 22.578125 -15.304688 22.578125 -17.078125 C 22.578125 -18.890625 22.46875 -20.367188 22.25 -21.515625 C 22.03125 -22.660156 21.6875 -23.59375 21.21875 -24.3125 Z M 21.21875 -24.3125 "/></g></g></g><g fill="#000000" fill-opacity="1"><g transform="translate(281.547914, 207.90176)"><g><path d="M 11.046875 -34.109375 L 11.046875 0 L 2.609375 0 L 2.609375 -34.109375 Z M 11.046875 -34.109375 "/></g></g></g><g fill="#000000" fill-opacity="1"><g transform="translate(297.925713, 207.90176)"><g><path d="M 8.703125 0 L -0.15625 0 L 12.453125 -34.109375 L 21.21875 -34.109375 L 33.515625 0 L 24.703125 0 L 22.90625 -5.71875 L 10.5 -5.71875 Z M 16.640625 -25.734375 C 16.359375 -24.710938 16.039062 -23.628906 15.6875 -22.484375 C 15.34375 -21.347656 14.773438 -19.492188 13.984375 -16.921875 L 12.5625 -12.40625 L 20.78125 -12.40625 L 19.375 -16.921875 C 18.894531 -18.296875 18.421875 -19.753906 17.953125 -21.296875 C 17.484375 -22.835938 17.046875 -24.316406 16.640625 -25.734375 Z M 16.640625 -25.734375 "/></g></g></g></svg>